<?xml version="1.0" standalone="no"?>
<!DOCTYPE svg PUBLIC "-//W3C//DTD SVG 20010904//EN"
 "http://www.w3.org/TR/2001/REC-SVG-20010904/DTD/svg10.dtd">
<svg version="1.0" xmlns="http://www.w3.org/2000/svg"
 width="612.000000pt" height="612.000000pt" viewBox="0 0 612.000000 612.000000"
 preserveAspectRatio="xMidYMid meet">
<metadata>
Created by potrace 1.15, written by Peter Selinger 2001-2017
</metadata>
<g transform="translate(0.000000,612.000000) scale(0.100000,-0.100000)"
fill="#000000" stroke="none">
<path d="M358 6101 c-115 -37 -213 -112 -280 -215 -101 -156 -106 -379 -13
-543 18 -32 406 -427 1144 -1166 l1116 -1117 -1116 -1118 c-738 -738 -1126
-1133 -1144 -1165 -45 -79 -65 -158 -65 -262 0 -188 78 -334 234 -436 155
-102 379 -108 543 -14 32 18 427 406 1166 1144 l1117 1116 1118 -1116 c738
-738 1133 -1126 1165 -1144 79 -45 158 -65 262 -65 190 0 344 85 444 245 94
150 96 374 6 532 -18 32 -406 427 -1144 1165 l-1116 1118 1116 1117 c738 739
1126 1134 1144 1166 45 79 65 158 65 262 0 190 -85 344 -245 444 -150 94 -374
96 -532 6 -32 -18 -427 -406 -1165 -1144 l-1118 -1116 -1118 1116 c-738 738
-1133 1126 -1165 1144 -116 66 -294 86 -419 46z"/>
</g>
</svg>
